<svg xmlns="http://www.w3.org/2000/svg" viewBox="0 0 800 500" role="img" aria-hidden="true">
  <defs>
    <linearGradient id="mission-bg" x1="0%" y1="0%" x2="100%" y2="100%">
      <stop offset="0%" stop-color="#080d14"/>
      <stop offset="38%" stop-color="#121a28"/>
      <stop offset="100%" stop-color="#243044"/>
    </linearGradient>
    <linearGradient id="mission-mesh" x1="0%" y1="0%" x2="100%" y2="100%">
      <stop offset="0%" stop-color="#67e8f9" stop-opacity="0.06"/>
      <stop offset="50%" stop-color="#c4b5fd" stop-opacity="0.05"/>
      <stop offset="100%" stop-color="#d4a843" stop-opacity="0.08"/>
    </linearGradient>
    <radialGradient id="mission-glow" cx="50%" cy="34%" r="72%">
      <stop offset="0%" stop-color="#f5dfa0" stop-opacity="0.34"/>
      <stop offset="45%" stop-color="#d4a843" stop-opacity="0.14"/>
      <stop offset="100%" stop-color="#b8892a" stop-opacity="0"/>
    </radialGradient>
    <radialGradient id="mission-beam" cx="82%" cy="12%" r="58%">
      <stop offset="0%" stop-color="#ece6dc" stop-opacity="0.12"/>
      <stop offset="100%" stop-color="#ece6dc" stop-opacity="0"/>
    </radialGradient>
    <radialGradient id="mission-aurora" cx="12%" cy="88%" r="55%">
      <stop offset="0%" stop-color="#818cf8" stop-opacity="0.12"/>
      <stop offset="100%" stop-color="#22d3ee" stop-opacity="0"/>
    </radialGradient>
    <pattern id="mission-grid" width="48" height="48" patternUnits="userSpaceOnUse">
      <path d="M48 0H0V48" fill="none" stroke="#ece6dc" stroke-width="0.55" opacity="0.055"/>
      <path d="M24 0v48M0 24h48" fill="none" stroke="#67e8f9" stroke-width="0.35" opacity="0.035"/>
    </pattern>
    <filter id="mission-soft" x="-20%" y="-20%" width="140%" height="140%">
      <feGaussianBlur stdDeviation="1.5" result="b"/>
      <feMerge><feMergeNode in="b"/><feMergeNode in="SourceGraphic"/></feMerge>
    </filter>
    <filter id="mission-glow-filter" x="-30%" y="-30%" width="160%" height="160%">
      <feGaussianBlur stdDeviation="8" result="blur"/>
      <feMerge><feMergeNode in="blur"/><feMergeNode in="SourceGraphic"/></feMerge>
    </filter>
  </defs>
  <rect width="800" height="500" fill="url(#mission-bg)"/>
  <rect width="800" height="500" fill="url(#mission-grid)"/>
  <rect width="800" height="500" fill="url(#mission-mesh)"/>
  <rect width="800" height="500" fill="url(#mission-glow)"/>
  <rect width="800" height="500" fill="url(#mission-beam)"/>
  <rect width="800" height="500" fill="url(#mission-aurora)"/>
  <circle cx="680" cy="85" r="140" fill="#b8892a" opacity="0.045"/>
  <circle cx="110" cy="415" r="105" fill="#ece6dc" opacity="0.03"/>
  <circle cx="620" cy="400" r="72" fill="#c4b5fd" opacity="0.035"/>
  <circle cx="180" cy="120" r="48" fill="#67e8f9" opacity="0.025"/>
  <path d="M0 420 Q200 372 400 420 T800 420" fill="none" stroke="#b8892a" stroke-width="1.5" opacity="0.14"/>
  <path d="M0 460 Q260 420 520 460 T800 460" fill="none" stroke="#818cf8" stroke-width="1" opacity="0.1"/>
  <path d="M48 48 H156 M48 48 V156 M752 48 H644 M752 48 V156 M48 452 H156 M48 452 V344 M752 452 H644 M752 452 V344" fill="none" stroke="#d4a843" stroke-width="2" opacity="0.18" stroke-linecap="round"/>
  <g filter="url(#mission-soft)">
    <g opacity="0.95">
  <path d="M280 300 Q400 140 520 300" fill="none" stroke="#ece6dc" stroke-width="2.5" opacity="0.35"/>
  <circle cx="350" cy="260" r="16" fill="#b8892a" opacity="0.8"/>
  <circle cx="400" cy="220" r="20" fill="#b8892a"/>
  <circle cx="450" cy="260" r="16" fill="#b8892a" opacity="0.8"/>
  <path d="M400 200l0-45M385 155h30" stroke="#b8892a" stroke-width="3"/>
  <path d="M350 260 L400 220 L450 260" fill="none" stroke="#ece6dc" stroke-width="2" opacity="0.4"/>
  <ellipse cx="400" cy="330" rx="130" ry="18" fill="#b8892a" opacity="0.1"/>
</g>
  </g>
  <g filter="url(#mission-glow-filter)" opacity="0.85">
    <circle cx="120" cy="120" r="2.5" fill="#d4a843" opacity="0.55"/>
    <circle cx="680" cy="180" r="2" fill="#ece6dc" opacity="0.45"/>
    <circle cx="540" cy="90" r="2" fill="#c4b5fd" opacity="0.4"/>
    <circle cx="200" cy="300" r="1.5" fill="#67e8f9" opacity="0.35"/>
    <circle cx="710" cy="320" r="1.5" fill="#d4a843" opacity="0.3"/>
  </g>
</svg>